<svg width="30" height="30" viewBox="0 0 30 30" fill="none" xmlns="http://www.w3.org/2000/svg">
<path fill-rule="evenodd" clip-rule="evenodd" d="M16.9115 8.27621C17.5517 7.72602 17.9572 6.91037 17.9572 6C17.9572 4.34315 16.6141 3 14.9572 3C13.3004 3 11.9572 4.34315 11.9572 6C11.9572 6.74316 12.2274 7.42321 12.675 7.94725C9.57881 11.0394 6.51816 16.1645 10.355 21.1295C8.02717 21.5353 6.30612 22.942 6.0044 25.9995C5.95016 26.5491 6.40494 27 6.95723 27H22.9572C23.5095 27 23.9643 26.5491 23.9101 25.9995C23.6083 22.942 21.8873 21.5353 19.5594 21.1295C22.8414 16.8824 21.0765 12.5182 18.5595 9.40949C18.4844 9.51723 18.4086 9.63111 18.3323 9.75106C17.9016 10.4285 17.49 11.2459 17.1325 12.118C16.4079 13.8855 15.9572 15.7492 15.9572 17H13.9572C13.9572 15.3872 14.5065 13.2509 15.2819 11.3593C15.6744 10.4018 16.1378 9.47493 16.6446 8.67794C16.7313 8.54164 16.8203 8.40744 16.9115 8.27621Z" fill="black"/>
</svg>
