<svg width="30" height="30" viewBox="0 0 30 30" fill="none" xmlns="http://www.w3.org/2000/svg">
<path fill-rule="evenodd" clip-rule="evenodd" d="M11.5001 5H13.5001V3H16.5001V5H18.5001V8H16.5001L17.0551 10.2202C17.463 10.1211 17.8747 10.0632 18.278 10.0461C20.2948 9.96033 22.5799 10.8841 23.5992 13.2888C24.0625 14.3818 24.1549 15.4388 23.9151 16.4517C23.69 17.4022 23.204 18.1672 22.7919 18.7404C22.6134 18.9887 22.4216 19.2366 22.2525 19.4553L22.1727 19.5586C21.9754 19.8142 21.8039 20.0402 21.6485 20.2669C21.3411 20.7151 21.1443 21.0995 21.0436 21.4942L21.0307 21.5447C22.6135 22.2277 23.717 23.609 23.9529 25.9995C24.0071 26.5491 23.5523 27 23.0001 27H7.00006C6.44777 27 5.99299 26.5491 6.04723 25.9995C6.28551 23.5849 7.40902 22.1998 9.01754 21.5242L8.99957 21.4538C8.89891 21.059 8.7021 20.6747 8.39472 20.2265C8.23925 19.9998 8.0678 19.7738 7.87049 19.5181L7.7907 19.4149L7.79068 19.4149C7.62152 19.1962 7.42978 18.9482 7.25127 18.7C6.83916 18.1268 6.35316 17.3618 6.12808 16.4112C5.88823 15.3983 5.98069 14.3413 6.44399 13.2484C7.46332 10.8437 9.74833 9.91991 11.7651 10.0056C12.1583 10.0223 12.5592 10.0777 12.957 10.1723L13.5001 8H11.5001V5ZM11.5953 14.002C10.8447 13.9701 10.3517 14.2788 10.1268 14.8095C9.96894 15.1818 9.99218 15.3702 10.0204 15.4896C10.0635 15.6713 10.1829 15.9253 10.4989 16.3649C10.6334 16.5519 10.7773 16.7381 10.9491 16.9604L10.9491 16.9604L11.0372 17.0743C11.2385 17.3352 11.4695 17.6375 11.6935 17.9642C11.8974 18.2615 12.1051 18.5923 12.2956 18.9596H13V18.3665V14.5727C12.6974 14.2726 12.2016 14.0278 11.5953 14.002ZM17.7476 19H17.0431V18.326V14.6132C17.3458 14.313 17.8416 14.0682 18.4479 14.0424C19.1985 14.0105 19.6915 14.3192 19.9164 14.8499C20.0742 15.2223 20.051 15.4106 20.0227 15.53C19.9797 15.7117 19.8603 15.9657 19.5442 16.4053C19.4098 16.5923 19.2658 16.7785 19.094 17.0008L19.006 17.1148C18.8047 17.3756 18.5737 17.678 18.3496 18.0046C18.1458 18.3019 17.9381 18.6327 17.7476 19Z" fill="black"/>
</svg>
