<svg width="30" height="30" viewBox="0 0 30 30" fill="none" xmlns="http://www.w3.org/2000/svg">
<path fill-rule="evenodd" clip-rule="evenodd" d="M12.8119 6.26238C12.6381 5.65816 12.5902 5.02488 12.5884 4.52217C12.5869 4.07479 13.0774 3.8519 13.4439 4.10846L16.7309 6.40935C21.3154 7.94257 24.7004 14.1242 21.3234 21.6602C22.8263 22.3646 23.8683 23.7332 24.0968 26.048C24.151 26.5976 23.6962 27.0485 23.1439 27.0485H7.14395C6.59166 27.0485 6.13688 26.5976 6.19112 26.048C6.43425 23.5842 7.59898 22.1924 9.26017 21.5324C9.75049 19.8016 11.1344 18.567 12.4239 17.4166C13.9455 16.0593 15.3356 14.8191 14.9718 13.0192C14.8126 13.2555 14.6715 13.4738 14.5413 13.6754L14.5412 13.6754C13.5227 15.2515 13.1698 15.7975 10.0578 15.7975C9.51109 16.3384 9.11924 16.7165 8.8387 16.9798C8.45428 17.3406 7.8025 17.3209 7.36381 17.0285L6.69758 16.5843C6.03324 16.1414 5.7793 14.6993 6.21925 14.033C6.73903 13.2457 7.51006 12.0516 8.6538 10.241C9.27352 7.78843 9.89323 7.50094 10.9959 6.98942C11.1423 6.92149 11.2972 6.84962 11.4618 6.7682C11.9059 6.54852 12.3575 6.38083 12.8119 6.26238Z" fill="black"/>
</svg>
