<svg width="30" height="30" viewBox="0 0 30 30" fill="none" xmlns="http://www.w3.org/2000/svg">
<path fill-rule="evenodd" clip-rule="evenodd" d="M19 8C19 9.24848 18.428 10.3634 17.5318 11.0969C19.5906 11.9973 20 12.2785 20 13.125C20 15 19.2857 15 18.5714 15H17.329C18.2958 18.0346 19.9954 19.637 21.2826 20.8505C22.2603 21.7723 23 22.4697 23 23.4C23 25.2814 22.6122 26 21.7692 26L15 26L8.23077 26C7.38781 26 7 25.2814 7 23.4C7 22.4697 7.73973 21.7723 8.71739 20.8505C10.0046 19.637 11.7042 18.0346 12.671 15H11.4286C10.7143 15 10 15 10 13.125C10 12.2785 10.4094 11.9973 12.4682 11.0969C11.572 10.3634 11 9.24848 11 8C11 5.79086 12.7909 4 15 4C17.2091 4 19 5.79086 19 8Z" fill="black"/>
</svg>
