<svg width="30" height="30" viewBox="0 0 30 30" fill="none" xmlns="http://www.w3.org/2000/svg">
<path fill-rule="evenodd" clip-rule="evenodd" d="M11.7502 6.85456C12.483 6.55782 13 5.83928 13 5C13 3.89543 12.1046 3 11 3C9.89543 3 9 3.89543 9 5C9 6.10457 9.89543 7 11 7C11.0311 7 11.062 6.99929 11.0927 6.99789L11.5 15.7778L6.49483 11.3287C6.80909 10.9755 7 10.51 7 10C7 8.89543 6.10457 8 5 8C3.89543 8 3 8.89543 3 10C3 11.1046 3.89543 12 5 12C5.22109 12 5.4338 11.9641 5.63263 11.8979L8.86387 21.5916C7.33764 22.2899 6.27779 23.6625 6.04717 25.9995C5.99293 26.5491 6.44772 27 7 27H23C23.5523 27 24.0071 26.5491 23.9528 25.9995C23.7222 23.6625 22.6624 22.2899 21.1361 21.5916L24.3674 11.8979C24.5662 11.9641 24.7789 12 25 12C26.1046 12 27 11.1046 27 10C27 8.89543 26.1046 8 25 8C23.8954 8 23 8.89543 23 10C23 10.57 23.2384 11.0843 23.621 11.4486L19.5 15.7778L19.0927 6.99789C20.1542 6.94947 21 6.0735 21 5C21 3.89543 20.1046 3 19 3C17.8954 3 17 3.89543 17 5C17 5.83928 17.517 6.55782 18.2498 6.85456L15 14.8889L11.7502 6.85456Z" fill="black"/>
</svg>
