<svg width="30" height="30" viewBox="0 0 30 30" fill="none" xmlns="http://www.w3.org/2000/svg">
<path fill-rule="evenodd" clip-rule="evenodd" d="M10.1111 3.5L7.95723 4.5L8.65864 8.35777C8.80524 9.16406 9.42294 9.78365 10.1966 9.95352L9.27412 20.4086C7.50642 21.0348 6.2572 22.4377 6.0044 24.9995C5.95016 25.5491 6.40494 26 6.95723 26H22.9572C23.5095 26 23.9643 25.5491 23.9101 24.9995C23.6573 22.4377 22.408 21.0348 20.6403 20.4086L19.7178 9.95352C20.4915 9.78364 21.1092 9.16406 21.2558 8.35777L21.9572 4.5L19.8034 3.5L18.7265 6H17.1111V3H12.8034V6H11.188L10.1111 3.5Z" fill="black"/>
</svg>
